name analog
datacolumns 19
datarows 27
range 0.468 0.481
endheader
time	ground_force_vx	ground_force_vy	ground_force_vz	ground_force_px	ground_force_py	ground_force_pz	l_ground_force_vx	l_ground_force_vy	l_ground_force_vz	l_ground_force_px	l_ground_force_py	l_ground_force_pz	ground_torque_x	ground_torque_y	ground_torque_z	l_ground_torque_x	l_ground_torque_y	l_ground_torque_z
0.468	-0.0	-0.0	-0.0	-0.0	-0.0	-0.0	-0.041486456990242	-0.627149760723114	-783.3328857421875	-0.0	-0.0	-0.0	-0.0	-0.0	-0.0	277263.0	-29921.05859375	-2551.296142578125
0.4685	-0.0	-0.0	-0.0	-0.0	-0.0	-0.0	-0.056089024990797	-1.450761318206787	-786.0326538085938	-0.0	-0.0	-0.0	-0.0	-0.0	-0.0	277772.4375	-30221.51953125	-2172.005615234375
0.46900000000000003	-0.0	-0.0	-0.0	-0.0	-0.0	-0.0	0.410883367061615	-1.5339959859848022	-786.1420288085938	-0.0	-0.0	-0.0	-0.0	-0.0	-0.0	277957.6875	-30492.53515625	-2120.279052734375
0.46950000000000003	-0.0	-0.0	-0.0	-0.0	-0.0	-0.0	0.9758186340332032	-2.672803401947021	-785.075927734375	-0.0	-0.0	-0.0	-0.0	-0.0	-0.0	277606.40625	-30550.2421875	-1790.7711181640625
0.47000000000000003	-0.0	-0.0	-0.0	-0.0	-0.0	-0.0	1.7645517587661743	-2.9242372512817383	-784.543701171875	-0.0	-0.0	-0.0	-0.0	-0.0	-0.0	277529.59375	-30818.958984375	-1282.775146484375
0.47050000000000003	-0.0	-0.0	-0.0	-0.0	-0.0	-0.0	2.4412038326263428	-3.830540657043457	-783.716064453125	-0.0	-0.0	-0.0	-0.0	-0.0	-0.0	276843.15625	-30880.71875	-1022.0919799804688
0.47100000000000003	-0.0	-0.0	-0.0	-0.0	-0.0	-0.0	3.026229858398437	-3.977198600769043	-782.1895751953125	-0.0	-0.0	-0.0	-0.0	-0.0	-0.0	276478.8125	-31141.7421875	-699.7852172851562
0.47150000000000003	-0.0	-0.0	-0.0	-0.0	-0.0	-0.0	3.6724600791931152	-4.140954494476318	-780.3136596679688	-0.0	-0.0	-0.0	-0.0	-0.0	-0.0	276116.9375	-31192.943359375	-491.70257568359375
0.47200000000000003	-0.0	-0.0	-0.0	-0.0	-0.0	-0.0	3.924057960510254	-4.229094505310059	-778.4780883789062	-0.0	-0.0	-0.0	-0.0	-0.0	-0.0	275633.78125	-31615.296875	-176.26763916015625
0.47250000000000003	-0.0	-0.0	-0.0	-0.0	-0.0	-0.0	4.879093170166016	-4.45960807800293	-778.17041015625	-0.0	-0.0	-0.0	-0.0	-0.0	-0.0	275101.28125	-31942.275390625	9.860228538513184
0.47300000000000003	-0.0	-0.0	-0.0	-0.0	-0.0	-0.0	4.978558540344238	-4.780078411102295	-775.857177734375	-0.0	-0.0	-0.0	-0.0	-0.0	-0.0	275250.0625	-32322.08203125	258.2162170410156
0.47350000000000003	-0.0	-0.0	-0.0	-0.0	-0.0	-0.0	5.910409927368164	-4.802438259124756	-773.370849609375	-0.0	-0.0	-0.0	-0.0	-0.0	-0.0	274588.71875	-32860.43359375	570.3983764648438
0.47400000000000003	-0.0	-0.0	-0.0	-0.0	-0.0	-0.0	6.941599369049072	-4.813570976257324	-773.8947143554688	-0.0	-0.0	-0.0	-0.0	-0.0	-0.0	274003.84375	-33370.296875	812.0527954101562
0.47450000000000003	-0.0	-0.0	-0.0	-0.0	-0.0	-0.0	7.529680252075195	-5.122657775878906	-771.7117919921875	-0.0	-0.0	-0.0	-0.0	-0.0	-0.0	273466.5625	-33731.09765625	1149.803955078125
0.47500000000000003	-0.0	-0.0	-0.0	-0.0	-0.0	-0.0	8.238585472106934	-5.144453525543213	-768.1788940429688	-0.0	-0.0	-0.0	-0.0	-0.0	-0.0	272499.9375	-34165.0234375	1394.9110107421875
0.47550000000000003	-0.0	-0.0	-0.0	-0.0	-0.0	-0.0	8.782367706298828	-4.990938663482666	-766.2561645507812	-0.0	-0.0	-0.0	-0.0	-0.0	-0.0	271746.6875	-34237.37109375	1547.50830078125
0.47600000000000003	-0.0	-0.0	-0.0	-0.0	-0.0	-0.0	9.137210845947266	-5.10107946395874	-762.9429321289062	-0.0	-0.0	-0.0	-0.0	-0.0	-0.0	270982.96875	-35010.94140625	1592.566162109375
0.47650000000000003	-0.0	-0.0	-0.0	-0.0	-0.0	-0.0	8.957192420959473	-4.470962047576904	-761.6318969726562	-0.0	-0.0	-0.0	-0.0	-0.0	-0.0	269999.8125	-34818.3359375	1621.4906005859375
0.47700000000000004	-0.0	-0.0	-0.0	-0.0	-0.0	-0.0	9.28099250793457	-3.962320327758789	-758.8751831054688	-0.0	-0.0	-0.0	-0.0	-0.0	-0.0	269373.5	-35172.2578125	1789.5191650390625
0.47750000000000004	-0.0	-0.0	-0.0	-0.0	-0.0	-0.0	9.779501914978027	-3.082364559173584	-756.5277099609375	-0.0	-0.0	-0.0	-0.0	-0.0	-0.0	268681.3125	-35594.50390625	1678.626708984375
0.47800000000000004	-0.0	-0.0	-0.0	-0.0	-0.0	-0.0	10.011746406555176	-2.3088808059692383	-756.5281982421875	-0.0	-0.0	-0.0	-0.0	-0.0	-0.0	268868.25	-35728.21875	1964.3604736328125
0.47850000000000004	-0.0	-0.0	-0.0	-0.0	-0.0	-0.0	10.577651023864746	-1.6361618041992188	-755.830322265625	-0.0	-0.0	-0.0	-0.0	-0.0	-0.0	268484.78125	-35987.96875	2082.105224609375
0.47900000000000004	-0.0	-0.0	-0.0	-0.0	-0.0	-0.0	11.20350170135498	-0.971538543701172	-755.944580078125	-0.0	-0.0	-0.0	-0.0	-0.0	-0.0	268753.03125	-35908.87890625	2216.852783203125
0.47950000000000004	-0.0	-0.0	-0.0	-0.0	-0.0	-0.0	11.007844924926758	-1.1558551788330078	-754.5682983398438	-0.0	-0.0	-0.0	-0.0	-0.0	-0.0	268630.21875	-36192.13671875	2330.87109375
0.48	-0.0	-0.0	-0.0	-0.0	-0.0	-0.0	10.426465034484863	-1.1275690793991089	-755.9132080078125	-0.0	-0.0	-0.0	-0.0	-0.0	-0.0	268751.75	-36165.96875	1967.43115234375
0.4805	-0.0	-0.0	-0.0	-0.0	-0.0	-0.0	9.437418937683104	-2.03139877319336	-753.6033325195312	-0.0	-0.0	-0.0	-0.0	-0.0	-0.0	268728.65625	-36109.7578125	1886.4251708984373
0.481	-0.0	-0.0	-0.0	-0.0	-0.0	-0.0	9.191797256469728	-2.9282188415527344	-753.8721313476562	-0.0	-0.0	-0.0	-0.0	-0.0	-0.0	268224.96875	-36123.2734375	1632.746826171875
